<?xml version="1.0" standalone="no"?>
<!DOCTYPE svg PUBLIC "-//W3C//DTD SVG 20010904//EN"
 "http://www.w3.org/TR/2001/REC-SVG-20010904/DTD/svg10.dtd">
<svg version="1.0" xmlns="http://www.w3.org/2000/svg"
 width="225.000000pt" height="224.000000pt" viewBox="0 0 225.000000 224.000000"
 preserveAspectRatio="xMidYMid meet">
<metadata>
Created by potrace 1.16, written by Peter Selinger 2001-2019
</metadata>
<g transform="translate(0.000000,224.000000) scale(0.100000,-0.100000)"
fill="#000000" stroke="none">
<path d="M963 1073 l117 -118 117 118 118 117 -235 0 -235 0 118 -117z"/>
<path d="M930 435 c63 -63 116 -115 117 -115 2 0 3 52 3 115 l0 115 -117 0
-118 0 115 -115z"/>
<path d="M1110 435 c0 -91 3 -114 13 -108 7 4 59 56 116 116 l104 107 -116 0
-117 0 0 -115z"/>
</g>
</svg>
